<svg aria-hidden="true" style="position: absolute; width: 0; height: 0; overflow: hidden;" version="1.1" xmlns="http://www.w3.org/2000/svg" xmlns:xlink="http://www.w3.org/1999/xlink">
<defs>

<symbol id="icon-Rectangle" viewBox="0 0 13 32">
<path fill="#2e363e" style="fill: var(--color1, #2e363e)" d="M3.458 2.357c0.16-1.334 1.285-2.357 2.649-2.357 0 0 0 0 0 0h6.693v32h-9.804c-1.473-0-2.667-1.194-2.667-2.667 0-0.109 0.007-0.216 0.019-0.322l-0.001 0.013 3.111-26.667z"></path>
</symbol>
<symbol id="icon-Rectangle-1" viewBox="0 0 13 32">
<path fill="#2e363e" style="fill: var(--color1, #2e363e)" d="M9.342 29.643c-0.16 1.334-1.285 2.357-2.649 2.357-0 0-0 0-0 0h-6.693v-32h9.804c1.473 0 2.667 1.194 2.667 2.667 0 0.109-0.007 0.216-0.019 0.322l0.001-0.013-3.111 26.667z"></path>
</symbol>
<symbol id="icon-Rectangle-3" viewBox="0 0 15 32">
<path fill="#f2f6fa" style="fill: var(--color1, #f2f6fa)" d="M4 0h10.462v32h-11.25c-1.699-0-3.077-1.378-3.077-3.077 0-0.145 0.010-0.287 0.029-0.427l-0.002 0.016 3.838-28.513z"></path>
</symbol>
<symbol id="icon-Rectangle-4" viewBox="0 0 15 32">
<path fill="#f2f6fa" style="fill: var(--color1, #f2f6fa)" d="M11.128 29.334c-0.21 1.514-1.495 2.666-3.049 2.666h-7.771v-32h14.769l-3.949 29.334z"></path>
</symbol>
<symbol id="icon-untitled" viewBox="0 0 32 32">
<path fill="#5d6afb" style="fill: var(--color1, #5d6afb)" opacity="0.9" d="M7.024 12.792c0 0 0.001 0 0.002 0 3.862 0 6.994 3.131 6.994 6.994s-3.131 6.994-6.994 6.994c-3.862 0-6.994-3.131-6.994-6.994v0l-0.032-1c0-7.723 6.262-13.986 13.986-13.986v3.996c-0.008-0-0.017-0-0.027-0-2.75 0-5.239 1.119-7.037 2.926l-0 0c-0.363 0.363-0.695 0.75-0.994 1.155 0.357-0.056 0.722-0.086 1.096-0.086zM25.007 12.792c3.862 0 6.994 3.131 6.994 6.994s-3.131 6.994-6.994 6.994c-3.862 0-6.994-3.131-6.994-6.994v0l-0.031-1c0-7.723 6.262-13.986 13.986-13.986v3.996c-0.008-0-0.017-0-0.027-0-2.75 0-5.239 1.119-7.037 2.926l-0 0c-0.363 0.363-0.695 0.75-0.994 1.155 0.357-0.056 0.722-0.086 1.096-0.086z"></path>
</symbol>
<symbol id="icon-Arrows" viewBox="0 0 76 32">
<path fill="#fed84c" style="fill: var(--color1, #fed84c)" d="M16.035 0c8.837 0 16 7.163 16 16s-7.163 16-16 16c-8.837 0-16-7.163-16-16s7.163-16 16-16z"></path>
<path fill="none" stroke="#2e363e" style="stroke: var(--color2, #2e363e)" stroke-linejoin="miter" stroke-linecap="round" stroke-miterlimit="4" stroke-width="1.9394" d="M17.506 11.009l-5.026 5.026 5.026 5.026"></path>
<path fill="#fed84c" style="fill: var(--color1, #fed84c)" d="M59.601 0c8.837 0 16 7.163 16 16s-7.163 16-16 16c-8.837 0-16-7.163-16-16s7.163-16 16-16z"></path>
<path fill="none" stroke="#2e363e" style="stroke: var(--color2, #2e363e)" stroke-linejoin="miter" stroke-linecap="round" stroke-miterlimit="4" stroke-width="1.9394" d="M57.792 11.009l5.026 5.026-5.026 5.026"></path>
</symbol>
<symbol id="icon-Phone" viewBox="0 0 31 32">
<path fill="#929aa2" style="fill: var(--color1, #929aa2)" d="M21.26 18.164c-0.623-0.615-1.399-0.615-2.018 0-0.471 0.468-0.944 0.935-1.408 1.412-0.127 0.132-0.234 0.16-0.389 0.071-0.305-0.166-0.63-0.302-0.923-0.484-1.369-0.862-2.516-1.967-3.531-3.212-0.505-0.619-0.951-1.281-1.265-2.027-0.063-0.151-0.052-0.25 0.071-0.373 0.473-0.455 0.932-0.923 1.396-1.392 0.647-0.651 0.647-1.412-0.004-2.068-0.369-0.372-0.738-0.737-1.106-1.109-0.382-0.382-0.757-0.766-1.142-1.143-0.623-0.607-1.401-0.607-2.018 0.005-0.476 0.468-0.933 0.948-1.415 1.408-0.418 0.392-0.688 0.937-0.722 1.545l-0 0.006c-0.076 0.987 0.166 1.92 0.507 2.828 0.698 1.879 1.761 3.55 3.050 5.081 1.699 2.028 3.781 3.674 6.142 4.841l0.11 0.049c1.094 0.532 2.228 0.94 3.462 1.008 0.849 0.047 1.586-0.167 2.177-0.83 0.405-0.452 0.862-0.864 1.289-1.297 0.635-0.642 0.64-1.419 0.009-2.054-0.754-0.757-1.511-1.511-2.27-2.265z"></path>
</symbol>
<symbol id="icon-" viewBox="0 0 35 32">
<path fill="#4a94ff" style="fill: var(--color1, #4a94ff)" d="M6.667 0h21.333c2.946 0 5.333 2.388 5.333 5.333v21.333c0 2.946-2.388 5.333-5.333 5.333h-21.333c-2.946 0-5.333-2.388-5.333-5.333v-21.333c0-2.946 2.388-5.333 5.333-5.333z"></path>
<path fill="none" stroke="#fff" style="stroke: var(--color2, #fff)" stroke-linejoin="miter" stroke-linecap="butt" stroke-miterlimit="4" stroke-width="2.6667" d="M9.333 14.667l5.333 5.333 12-12"></path>
</symbol>
<symbol id="icon-icon-check" viewBox="0 0 34 32">
<path  stroke-linejoin="miter" stroke-linecap="butt" stroke-miterlimit="4" stroke-width="0.4267" d="M8.442 16.538l-0.147-0.141-0.147 0.139-2.057 1.95 0.162 0.156 7.605 7.253 0.147-0.141 16.171-15.426-0.162-0.154-2.029-1.935-0.147 0.141-13.98 13.325-5.417-5.167z"></path>
</symbol>
</defs>
</svg>
